<svg width="56" height="56" viewBox="0 0 56 56" fill="none" xmlns="http://www.w3.org/2000/svg">
<path d="M46.3754 26.2496C48.7914 26.2496 50.75 24.291 50.75 21.875C50.75 19.459 48.7912 17.5004 46.3752 17.5004C43.9589 17.5004 42 19.4591 42 21.8754V26.2496H46.3754ZM34.125 26.2496C36.5412 26.2496 38.5 24.2909 38.5 21.8746V9.62536C38.5 7.20912 36.5412 5.25037 34.125 5.25037C31.7088 5.25037 29.75 7.20912 29.75 9.62537V21.8746C29.75 24.2909 31.7088 26.2496 34.125 26.2496Z" fill="#2EB67D"/>
<path d="M9.62463 29.7504C7.20859 29.7504 5.25 31.709 5.25 34.125C5.25 36.541 7.20877 38.4996 9.62481 38.4996C12.0411 38.4996 14 36.5409 14 34.1246V29.7504H9.62463ZM21.875 29.7504C19.4588 29.7504 17.5 31.7091 17.5 34.1254V46.3746C17.5 48.7909 19.4588 50.7496 21.875 50.7496C24.2912 50.7496 26.25 48.7909 26.25 46.3746V34.1254C26.25 31.7091 24.2912 29.7504 21.875 29.7504Z" fill="#E01E5A"/>
<path d="M29.7503 46.3754C29.7503 48.7914 31.7089 50.75 34.1249 50.75C36.541 50.75 38.4996 48.7912 38.4996 46.3752C38.4996 43.9589 36.5408 42 34.1246 42L29.7503 42L29.7503 46.3754ZM29.7503 34.125C29.7503 36.5412 31.7091 38.5 34.1253 38.5L46.3746 38.5C48.7908 38.5 50.7496 36.5412 50.7496 34.125C50.7496 31.7088 48.7908 29.75 46.3746 29.75L34.1253 29.75C31.7091 29.75 29.7503 31.7088 29.7503 34.125Z" fill="#ECB22E"/>
<path d="M26.2496 9.62463C26.2496 7.20859 24.291 5.25 21.8749 5.25C19.4589 5.25 17.5003 7.20878 17.5003 9.62481C17.5003 12.0411 19.4591 14 21.8753 14L26.2496 14L26.2496 9.62463ZM26.2496 21.875C26.2496 19.4588 24.2908 17.5 21.8746 17.5L9.6253 17.5C7.20906 17.5 5.25031 19.4588 5.25031 21.875C5.25031 24.2912 7.20906 26.25 9.62531 26.25L21.8746 26.25C24.2908 26.25 26.2496 24.2912 26.2496 21.875Z" fill="#36C5F0"/>
</svg>
