<svg width="56" height="56" viewBox="0 0 56 56" fill="none" xmlns="http://www.w3.org/2000/svg">
<g filter="url(#filter0_d_1374_891)">
<path d="M3.5 20.9222C3.5 14.8239 3.5 11.7747 4.68682 9.44544C5.73077 7.39656 7.39656 5.73077 9.44544 4.68682C11.7747 3.5 14.8239 3.5 20.9222 3.5H35.0778C41.1761 3.5 44.2253 3.5 46.5546 4.68682C48.6034 5.73077 50.2692 7.39656 51.3132 9.44544C52.5 11.7747 52.5 14.8239 52.5 20.9222V35.0778C52.5 41.1761 52.5 44.2253 51.3132 46.5546C50.2692 48.6034 48.6034 50.2692 46.5546 51.3132C44.2253 52.5 41.1761 52.5 35.0778 52.5H20.9222C14.8239 52.5 11.7747 52.5 9.44544 51.3132C7.39656 50.2692 5.73077 48.6034 4.68682 46.5546C3.5 44.2253 3.5 41.1761 3.5 35.0778V20.9222Z" fill="white"/>
<path d="M28.0036 21.7891L21.947 11.1006C22.1481 10.8959 22.3795 10.7616 22.6109 10.6713C20.8248 11.2591 20.0053 13.2647 20.0053 13.2647L8.94091 32.7859C8.78523 33.3979 8.74198 33.9505 8.76144 34.437H20.8378L28.0036 21.7891Z" fill="#34A853"/>
<path d="M28.0034 21.7891L35.1692 34.437H47.2455C47.265 33.9505 47.2217 33.3979 47.066 32.7859L36.0016 13.2647C36.0016 13.2647 35.18 11.2591 33.3961 10.6713C33.6253 10.7616 33.8588 10.8959 34.0599 11.1006L28.0034 21.7891Z" fill="#FBBC05"/>
<path d="M28.0034 21.7896L34.0599 11.1011C33.8588 10.8963 33.6253 10.762 33.3961 10.6718C33.1323 10.5859 32.8491 10.5287 32.542 10.5132H32.222H23.7848H23.4648C23.1599 10.5265 22.8745 10.5837 22.6107 10.6718C22.3815 10.762 22.1479 10.8963 21.9468 11.1011L28.0034 21.7896Z" fill="#188038"/>
<path d="M20.8398 34.4371L14.8524 45.0045C14.8524 45.0045 14.6535 44.9076 14.3832 44.7073C15.233 45.3611 16.0589 45.4998 16.0589 45.4998H39.5738C40.8711 45.4998 41.1414 45.0045 41.1414 45.0045C41.1457 45.0023 41.1479 45.0001 41.1522 44.9979L35.1692 34.4371H20.8398Z" fill="#4285F4"/>
<path d="M20.8403 34.4371H8.76392C8.82446 35.8725 9.4472 36.7113 9.4472 36.7113L9.90128 37.4994C9.93371 37.5457 9.95317 37.5721 9.95317 37.5721L10.9413 39.3069L13.1598 43.1684C13.2247 43.3247 13.3004 43.4678 13.3804 43.6043C13.4107 43.6505 13.4388 43.7012 13.4712 43.7452C13.4798 43.7584 13.4885 43.7716 13.4971 43.7848C13.7718 44.1723 14.0788 44.4717 14.3858 44.7073C14.6561 44.9098 14.8551 45.0045 14.8551 45.0045L20.8403 34.4371Z" fill="#1967D2"/>
<path d="M35.1692 34.4371H47.2455C47.185 35.8725 46.5623 36.7113 46.5623 36.7113L46.1082 37.4994C46.0757 37.5457 46.0563 37.5721 46.0563 37.5721L45.0681 39.3069L42.8496 43.1684C42.7847 43.3247 42.7091 43.4678 42.6291 43.6043C42.5988 43.6505 42.5707 43.7012 42.5382 43.7452C42.5296 43.7584 42.5209 43.7716 42.5123 43.7848C42.2377 44.1723 41.9306 44.4717 41.6236 44.7073C41.3533 44.9098 41.1544 45.0045 41.1544 45.0045L35.1692 34.4371Z" fill="#EA4335"/>
</g>
<defs>
<filter id="filter0_d_1374_891" x="-2" y="-1" width="60" height="60" filterUnits="userSpaceOnUse" color-interpolation-filters="sRGB">
<feFlood flood-opacity="0" result="BackgroundImageFix"/>
<feColorMatrix in="SourceAlpha" type="matrix" values="0 0 0 0 0 0 0 0 0 0 0 0 0 0 0 0 0 0 127 0" result="hardAlpha"/>
<feOffset dy="1"/>
<feGaussianBlur stdDeviation="1"/>
<feComposite in2="hardAlpha" operator="out"/>
<feColorMatrix type="matrix" values="0 0 0 0 0.0627451 0 0 0 0 0.0941176 0 0 0 0 0.156863 0 0 0 0.05 0"/>
<feBlend mode="normal" in2="BackgroundImageFix" result="effect1_dropShadow_1374_891"/>
<feBlend mode="normal" in="SourceGraphic" in2="effect1_dropShadow_1374_891" result="shape"/>
</filter>
</defs>
</svg>
