<svg width="56" height="56" viewBox="0 0 56 56" fill="none" xmlns="http://www.w3.org/2000/svg">
<path fill-rule="evenodd" clip-rule="evenodd" d="M10.003 51.1311L3.98411 43.633C2.53598 41.829 1.75 39.6106 1.75 37.3273V10.1762C1.75 6.75612 4.48628 3.9182 8.01625 3.67719L35.9312 1.77132C37.9592 1.63286 39.9749 2.17191 41.6408 3.29823L51.4487 9.92935C53.2043 11.1163 54.25 13.0567 54.25 15.1274V45.9956C54.25 49.3426 51.5595 52.1138 48.1033 52.3265L17.1208 54.2337C14.3628 54.4034 11.697 53.2414 10.003 51.1311Z" fill="white"/>
<path d="M19.6843 23.7627V23.4073C19.6843 22.5062 20.4059 21.7589 21.336 21.6968L28.1109 21.2445L37.4799 35.0412V22.9323L35.0684 22.6108V22.4419C35.0684 21.5303 35.8066 20.7781 36.7485 20.7298L42.9129 20.414V21.3011C42.9129 21.7176 42.6032 22.0738 42.1788 22.1456L40.6954 22.3965V42.0065L38.8336 42.6467C37.2783 43.1816 35.5468 42.609 34.6564 41.2655L25.5607 27.5401V40.6402L28.3604 41.176L28.3214 41.4357C28.1992 42.2491 27.4969 42.8643 26.6473 42.9021L19.6843 43.212C19.5922 42.3373 20.2478 41.5547 21.1522 41.4597L22.0681 41.3635V23.8967L19.6843 23.7627Z" fill="black"/>
<path fill-rule="evenodd" clip-rule="evenodd" d="M36.1812 5.19187L8.2662 7.09774C6.5941 7.2119 5.29797 8.55618 5.29797 10.1762V37.3273C5.29797 38.8495 5.82196 40.3284 6.78738 41.5311L12.8063 49.0292C13.7794 50.2415 15.3109 50.9091 16.8952 50.8115L47.8777 48.9044C49.4657 48.8066 50.7019 47.5334 50.7019 45.9956V15.1275C50.7019 14.176 50.2214 13.2845 49.4148 12.7391L39.6069 6.10801C38.6074 5.43222 37.398 5.10879 36.1812 5.19187ZM9.65044 10.5997C9.26219 10.3123 9.44697 9.71346 9.9347 9.67847L36.369 7.78244C37.2112 7.72203 38.0481 7.95396 38.7292 8.43654L44.0331 12.1942C44.2344 12.3369 44.14 12.6449 43.8907 12.6584L15.8969 14.1809C15.0497 14.227 14.2135 13.9781 13.5399 13.4794L9.65044 10.5997ZM14.5839 18.9537C14.5839 18.0443 15.3186 17.2931 16.2581 17.2419L45.8555 15.63C46.7711 15.5802 47.5419 16.2843 47.5419 17.1707V43.8992C47.5419 44.807 46.8098 45.5574 45.8721 45.6108L16.4622 47.2842C15.4432 47.3422 14.5839 46.5591 14.5839 45.5726V18.9537Z" fill="black"/>
</svg>
